<svg id="SvgjsSvg1006" width="1341.5" height="1323" xmlns="http://www.w3.org/2000/svg" version="1.1" xmlns:xlink="http://www.w3.org/1999/xlink" xmlns:svgjs="http://svgjs.com/svgjs"><defs id="SvgjsDefs1007"><marker id="SvgjsMarker1048" markerWidth="16" markerHeight="12" refX="16" refY="6" viewBox="0 0 16 12" orient="auto" markerUnits="userSpaceOnUse" stroke-dasharray="0,0"><path id="SvgjsPath1049" d="M0,2 L14,6 L0,11 L0,2" fill="#323232" stroke="#323232" stroke-width="2"></path></marker><marker id="SvgjsMarker1068" markerWidth="16" markerHeight="12" refX="16" refY="6" viewBox="0 0 16 12" orient="auto" markerUnits="userSpaceOnUse" stroke-dasharray="0,0"><path id="SvgjsPath1069" d="M0,2 L14,6 L0,11 L0,2" fill="#323232" stroke="#323232" stroke-width="2"></path></marker><marker id="SvgjsMarker1101" markerWidth="16" markerHeight="12" refX="16" refY="6" viewBox="0 0 16 12" orient="auto" markerUnits="userSpaceOnUse" stroke-dasharray="0,0"><path id="SvgjsPath1102" d="M0,2 L14,6 L0,11 L0,2" fill="#323232" stroke="#323232" stroke-width="2"></path></marker><marker id="SvgjsMarker1109" markerWidth="16" markerHeight="12" refX="16" refY="6" viewBox="0 0 16 12" orient="auto" markerUnits="userSpaceOnUse" stroke-dasharray="0,0"><path id="SvgjsPath1110" d="M0,2 L14,6 L0,11 L0,2" fill="#323232" stroke="#323232" stroke-width="2"></path></marker><marker id="SvgjsMarker1117" markerWidth="16" markerHeight="12" refX="16" refY="6" viewBox="0 0 16 12" orient="auto" markerUnits="userSpaceOnUse" stroke-dasharray="0,0"><path id="SvgjsPath1118" d="M0,2 L14,6 L0,11 L0,2" fill="#323232" stroke="#323232" stroke-width="2"></path></marker><marker id="SvgjsMarker1139" markerWidth="16" markerHeight="12" refX="16" refY="6" viewBox="0 0 16 12" orient="auto" markerUnits="userSpaceOnUse" stroke-dasharray="0,0"><path id="SvgjsPath1140" d="M0,2 L14,6 L0,11 L0,2" fill="#323232" stroke="#323232" stroke-width="2"></path></marker><marker id="SvgjsMarker1172" markerWidth="16" markerHeight="12" refX="16" refY="6" viewBox="0 0 16 12" orient="auto" markerUnits="userSpaceOnUse" stroke-dasharray="0,0"><path id="SvgjsPath1173" d="M0,2 L14,6 L0,11 L0,2" fill="#323232" stroke="#323232" stroke-width="2"></path></marker><marker id="SvgjsMarker1180" markerWidth="16" markerHeight="12" refX="0" refY="6" viewBox="0 0 16 12" orient="auto" markerUnits="userSpaceOnUse" stroke-dasharray="0,0"><path id="SvgjsPath1181" d="M15,1.5 L2,6 L15,10.5" fill="#323232" stroke="#323232" stroke-width="2"></path></marker><marker id="SvgjsMarker1188" markerWidth="16" markerHeight="12" refX="16" refY="6" viewBox="0 0 16 12" orient="auto" markerUnits="userSpaceOnUse" stroke-dasharray="0,0"><path id="SvgjsPath1189" d="M0,2 L14,6 L0,11 L0,2" fill="#323232" stroke="#323232" stroke-width="2"></path></marker><marker id="SvgjsMarker1210" markerWidth="16" markerHeight="12" refX="16" refY="6" viewBox="0 0 16 12" orient="auto" markerUnits="userSpaceOnUse" stroke-dasharray="0,0"><path id="SvgjsPath1211" d="M0,2 L14,6 L0,11 L0,2" fill="#323232" stroke="#323232" stroke-width="2"></path></marker><marker id="SvgjsMarker1243" markerWidth="16" markerHeight="12" refX="16" refY="6" viewBox="0 0 16 12" orient="auto" markerUnits="userSpaceOnUse" stroke-dasharray="0,0"><path id="SvgjsPath1244" d="M0,2 L14,6 L0,11 L0,2" fill="#323232" stroke="#323232" stroke-width="2"></path></marker><marker id="SvgjsMarker1251" markerWidth="16" markerHeight="12" refX="16" refY="6" viewBox="0 0 16 12" orient="auto" markerUnits="userSpaceOnUse" stroke-dasharray="0,0"><path id="SvgjsPath1252" d="M0,2 L14,6 L0,11 L0,2" fill="#323232" stroke="#323232" stroke-width="2"></path></marker><marker id="SvgjsMarker1259" markerWidth="16" markerHeight="12" refX="16" refY="6" viewBox="0 0 16 12" orient="auto" markerUnits="userSpaceOnUse" stroke-dasharray="0,0"><path id="SvgjsPath1260" d="M0,2 L14,6 L0,11 L0,2" fill="#323232" stroke="#323232" stroke-width="2"></path></marker><marker id="SvgjsMarker1267" markerWidth="16" markerHeight="12" refX="16" refY="6" viewBox="0 0 16 12" orient="auto" markerUnits="userSpaceOnUse" stroke-dasharray="0,0"><path id="SvgjsPath1268" d="M0,2 L14,6 L0,11 L0,2" fill="#323232" stroke="#323232" stroke-width="2"></path></marker><marker id="SvgjsMarker1287" markerWidth="16" markerHeight="12" refX="16" refY="6" viewBox="0 0 16 12" orient="auto" markerUnits="userSpaceOnUse" stroke-dasharray="0,0"><path id="SvgjsPath1288" d="M0,2 L14,6 L0,11 L0,2" fill="#323232" stroke="#323232" stroke-width="2"></path></marker><marker id="SvgjsMarker1295" markerWidth="16" markerHeight="12" refX="0" refY="6" viewBox="0 0 16 12" orient="auto" markerUnits="userSpaceOnUse" stroke-dasharray="0,0"><path id="SvgjsPath1296" d="M15,1.5 L2,6 L15,10.5" fill="#323232" stroke="#323232" stroke-width="2"></path></marker><marker id="SvgjsMarker1303" markerWidth="16" markerHeight="12" refX="16" refY="6" viewBox="0 0 16 12" orient="auto" markerUnits="userSpaceOnUse" stroke-dasharray="0,0"><path id="SvgjsPath1304" d="M0,2 L14,6 L0,11 L0,2" fill="#323232" stroke="#323232" stroke-width="2"></path></marker><marker id="SvgjsMarker1321" markerWidth="16" markerHeight="12" refX="16" refY="6" viewBox="0 0 16 12" orient="auto" markerUnits="userSpaceOnUse" stroke-dasharray="0,0"><path id="SvgjsPath1322" d="M0,2 L14,6 L0,11 L0,2" fill="#323232" stroke="#323232" stroke-width="2"></path></marker></defs><g id="SvgjsG1008" transform="translate(816.5,373)"><path id="SvgjsPath1009" d="M 0 0L 500 0L 500 82L 0 82Z" stroke="rgba(50,50,50,1)" stroke-width="2" fill-opacity="1" fill="#ffffff"></path><g id="SvgjsG1010"><text id="SvgjsText1011" font-family="微软雅黑" text-anchor="middle" font-size="13px" width="480px" fill="#323232" font-weight="400" align="middle" lineHeight="125%" anchor="middle" family="微软雅黑" size="13px" weight="400" font-style="" opacity="1" y="31.375" transform="rotate(0)"></text></g></g><g id="SvgjsG1012" transform="translate(816.5,200)"><path id="SvgjsPath1013" d="M 0 0L 500 0L 500 173L 0 173Z" stroke="rgba(50,50,50,1)" stroke-width="2" fill-opacity="1" fill="#ffffff"></path><g id="SvgjsG1014"><text id="SvgjsText1015" font-family="微软雅黑" text-anchor="middle" font-size="13px" width="480px" fill="#323232" font-weight="400" align="middle" lineHeight="125%" anchor="middle" family="微软雅黑" size="13px" weight="400" font-style="" opacity="1" y="76.875" transform="rotate(0)"></text></g></g><g id="SvgjsG1016" transform="translate(816.5,105.5)"><path id="SvgjsPath1017" d="M 0 0L 500 0L 500 94.5L 0 94.5Z" stroke="rgba(50,50,50,1)" stroke-width="2" fill-opacity="1" fill="#ffffff"></path><g id="SvgjsG1018"><text id="SvgjsText1019" font-family="微软雅黑" text-anchor="middle" font-size="13px" width="480px" fill="#323232" font-weight="400" align="middle" lineHeight="125%" anchor="middle" family="微软雅黑" size="13px" weight="400" font-style="" opacity="1" y="37.625" transform="rotate(0)"></text></g></g><g id="SvgjsG1020" transform="translate(28.117196744717546,931)"><path id="SvgjsPath1021" d="M 0 0L 542.3828032552825 0L 542.3828032552825 367L 0 367Z" stroke="rgba(50,50,50,1)" stroke-width="2" fill-opacity="1" fill="#ffffff"></path><g id="SvgjsG1022"><text id="SvgjsText1023" font-family="微软雅黑" text-anchor="middle" font-size="13px" width="523px" fill="#323232" font-weight="400" align="middle" lineHeight="125%" anchor="middle" family="微软雅黑" size="13px" weight="400" font-style="" opacity="1" y="173.875" transform="rotate(0)"></text></g></g><g id="SvgjsG1024" transform="translate(416.7672507766256,1161)"><path id="SvgjsPath1025" d="M 0 0L 137.7327492233744 0L 137.7327492233744 90L 0 90Z" stroke="rgba(50,50,50,1)" stroke-width="2" fill-opacity="1" fill="#ffffcc"></path><g id="SvgjsG1026"><text id="SvgjsText1027" font-family="微软雅黑" text-anchor="middle" font-size="13px" width="118px" fill="#323232" font-weight="400" align="middle" lineHeight="125%" anchor="middle" family="微软雅黑" size="13px" weight="400" font-style="" opacity="1" y="27.375" transform="rotate(0)"><tspan id="SvgjsTspan1028" dy="16" x="69"><tspan id="SvgjsTspan1029" style="text-decoration:;">新核心系统</tspan></tspan><tspan id="SvgjsTspan1030" dy="16" x="69"><tspan id="SvgjsTspan1031" style="text-decoration:;">安全代理组件</tspan></tspan></text></g></g><g id="SvgjsG1032" transform="translate(56.117196744717546,956.3423629232801)"><path id="SvgjsPath1033" d="M 0 0L 101 0L 101 197.53387193119684L 0 197.53387193119684Z" stroke="rgba(50,50,50,1)" stroke-width="2" fill-opacity="1" fill="#99ffcc"></path><g id="SvgjsG1034"><text id="SvgjsText1035" font-family="微软雅黑" text-anchor="middle" font-size="13px" width="81px" fill="#323232" font-weight="400" align="middle" lineHeight="125%" anchor="middle" family="微软雅黑" size="13px" weight="400" font-style="" opacity="1" y="81.14193596559842" transform="rotate(0)"><tspan id="SvgjsTspan1036" dy="16" x="50.5"><tspan id="SvgjsTspan1037" style="text-decoration:;">金融市场</tspan></tspan><tspan id="SvgjsTspan1038" dy="16" x="50.5"><tspan id="SvgjsTspan1039" style="text-decoration:;">业务系统</tspan></tspan></text></g></g><g id="SvgjsG1040" transform="translate(50.96429084108655,1161)"><path id="SvgjsPath1041" d="M 16.06071274767405 0L 92.071418317827 0C 111.16232740873609 0 111.16232740873609 90 92.071418317827 90L 16.06071274767405 90C -5.35357091589135 90 -5.35357091589135 0 16.06071274767405 0ZM 92.071418317827 0C 73.321418317827 0 73.321418317827 90 92.071418317827 90C 73.321418317827 90 73.321418317827 0 92.071418317827 0" stroke="rgba(50,50,50,1)" stroke-width="2" fill-opacity="1" fill="#ccffcc"></path><g id="SvgjsG1042"><text id="SvgjsText1043" font-family="微软雅黑" text-anchor="middle" font-size="13px" width="86px" fill="#323232" font-weight="400" align="middle" lineHeight="125%" anchor="middle" family="微软雅黑" size="13px" weight="400" font-style="" opacity="1" y="35.375" transform="rotate(0)"><tspan id="SvgjsTspan1044" dy="16" x="43"><tspan id="SvgjsTspan1045" style="text-decoration:;">数据库</tspan></tspan></text></g></g><g id="SvgjsG1046"><path id="SvgjsPath1047" d="M157.11719674471755 1055.1092988888786L334.00000000000006 1055.1092988888786L334.00000000000006 1164.0546494444393" stroke="#323232" stroke-width="2" fill="none" marker-end="url(#SvgjsMarker1048)"></path></g><g id="SvgjsG1050" transform="translate(165.83333333333331,1188.5)"><path id="SvgjsPath1051" d="M 0 17.5L 17.5 0L 17.5 11.55L 93.66666666666674 11.55L 93.66666666666674 23.450000000000003L 17.5 23.450000000000003L 17.5 35L 0 17.5Z" stroke="rgba(50,50,50,1)" stroke-width="2" fill-opacity="1" fill="#ff9999"></path><g id="SvgjsG1052"><text id="SvgjsText1053" font-family="微软雅黑" text-anchor="middle" font-size="13px" width="94px" fill="#323232" font-weight="400" align="middle" lineHeight="125%" anchor="middle" family="微软雅黑" size="13px" weight="400" font-style="" opacity="1" y="7.875" transform="rotate(0)"></text></g></g><g id="SvgjsG1054" transform="translate(274.50000000000006,1164.0546494444393)"><path id="SvgjsPath1055" d="M 0 0L 119 0L 119 83.89070111112142L 0 83.89070111112142Z" stroke="rgba(50,50,50,1)" stroke-width="2" fill-opacity="1" fill="#ffe6cc"></path><g id="SvgjsG1056"><text id="SvgjsText1057" font-family="微软雅黑" text-anchor="middle" font-size="13px" width="99px" fill="#323232" font-weight="400" align="middle" lineHeight="125%" anchor="middle" family="微软雅黑" size="13px" weight="400" font-style="" opacity="1" y="32.32035055556071" transform="rotate(0)"><tspan id="SvgjsTspan1058" dy="16" x="59.5"><tspan id="SvgjsTspan1059" style="text-decoration:;">新核心改造工程</tspan></tspan></text></g></g><g id="SvgjsG1060" transform="translate(193.50000000000006,947)"><path id="SvgjsPath1061" d="M 0 0L 119 0L 119 40L 0 40Z" stroke="none" fill="none"></path><g id="SvgjsG1062"><text id="SvgjsText1063" font-family="微软雅黑" text-anchor="middle" font-size="13px" width="119px" fill="#323232" font-weight="400" align="middle" lineHeight="125%" anchor="middle" family="微软雅黑" size="13px" weight="400" font-style="" opacity="1" y="10.375" transform="rotate(0)"><tspan id="SvgjsTspan1064" dy="16" x="59.5"><tspan id="SvgjsTspan1065" style="text-decoration:;">内网区</tspan></tspan></text></g></g><g id="SvgjsG1066"><path id="SvgjsPath1067" d="M393.5 1206L405.1336253883128 1206L405.1336253883128 1206L416.7672507766256 1206" stroke="#323232" stroke-width="2" fill="none" marker-end="url(#SvgjsMarker1068)"></path></g><g id="SvgjsG1070" transform="translate(168.5,707)"><path id="SvgjsPath1071" d="M 0 0L 101 0L 101 70L 0 70Z" stroke="rgba(50,50,50,1)" stroke-width="2" fill-opacity="1" fill="#ffffff"></path><g id="SvgjsG1072"><text id="SvgjsText1073" font-family="微软雅黑" text-anchor="middle" font-size="13px" width="81px" fill="#323232" font-weight="400" align="middle" lineHeight="125%" anchor="middle" family="微软雅黑" size="13px" weight="400" font-style="" opacity="1" y="25.375" transform="rotate(0)"></text></g></g><g id="SvgjsG1074" transform="translate(25,118.5)"><path id="SvgjsPath1075" d="M 0 4Q 0 0 4 0L 159 0Q 163 0 163 4L 163 29Q 163 33 159 33L 4 33Q 0 33 0 29Z" stroke="rgba(50,50,50,1)" stroke-width="2" fill-opacity="1" fill="#ffe6cc"></path><g id="SvgjsG1076"><text id="SvgjsText1077" font-family="微软雅黑" text-anchor="middle" font-size="13px" width="143px" fill="#323232" font-weight="400" align="middle" lineHeight="125%" anchor="middle" family="微软雅黑" size="13px" weight="400" font-style="" opacity="1" y="6.875" transform="rotate(0)"><tspan id="SvgjsTspan1078" dy="16" x="81.5"><tspan id="SvgjsTspan1079" style="text-decoration:;">List&lt;Fruit&gt;</tspan></tspan></text></g></g><g id="SvgjsG1080" transform="translate(318.25,118.5)"><path id="SvgjsPath1081" d="M 0 4Q 0 0 4 0L 156.5 0Q 160.5 0 160.5 4L 160.5 29Q 160.5 33 156.5 33L 4 33Q 0 33 0 29Z" stroke="rgba(50,50,50,1)" stroke-width="2" fill-opacity="1" fill="#ffe6cc"></path><g id="SvgjsG1082"><text id="SvgjsText1083" font-family="微软雅黑" text-anchor="middle" font-size="13px" width="141px" fill="#323232" font-weight="400" align="middle" lineHeight="125%" anchor="middle" family="微软雅黑" size="13px" weight="400" font-style="" opacity="1" y="6.875" transform="rotate(0)"><tspan id="SvgjsTspan1084" dy="16" x="80.5"><tspan id="SvgjsTspan1085" style="text-decoration:;">List&lt;Apple</tspan><tspan id="SvgjsTspan1086" style="text-decoration:;font-size: inherit;">&gt;</tspan></tspan></text></g></g><g id="SvgjsG1087" transform="translate(25,225.5)"><path id="SvgjsPath1088" d="M 0 4Q 0 0 4 0L 159 0Q 163 0 163 4L 163 31Q 163 35 159 35L 4 35Q 0 35 0 31Z" stroke="rgba(50,50,50,1)" stroke-width="2" fill-opacity="1" fill="#ccffcc"></path><g id="SvgjsG1089"><text id="SvgjsText1090" font-family="微软雅黑" text-anchor="middle" font-size="13px" width="143px" fill="#323232" font-weight="400" align="middle" lineHeight="125%" anchor="middle" family="微软雅黑" size="13px" weight="400" font-style="" opacity="1" y="7.875" transform="rotate(0)"><tspan id="SvgjsTspan1091" dy="16" x="81.5"><tspan id="SvgjsTspan1092" style="text-decoration:;">List&lt;? extends Fruit&gt;</tspan></tspan></text></g></g><g id="SvgjsG1093" transform="translate(317,225.5)"><path id="SvgjsPath1094" d="M 0 4Q 0 0 4 0L 159 0Q 163 0 163 4L 163 31Q 163 35 159 35L 4 35Q 0 35 0 31Z" stroke="rgba(50,50,50,1)" stroke-width="2" fill-opacity="1" fill="#ccffcc"></path><g id="SvgjsG1095"><text id="SvgjsText1096" font-family="微软雅黑" text-anchor="middle" font-size="13px" width="143px" fill="#323232" font-weight="400" align="middle" lineHeight="125%" anchor="middle" family="微软雅黑" size="13px" weight="400" font-style="" opacity="1" y="7.875" transform="rotate(0)"><tspan id="SvgjsTspan1097" dy="16" x="81.5"><tspan id="SvgjsTspan1098" style="text-decoration:;">List&lt;? extends Apple&gt;</tspan></tspan></text></g></g><g id="SvgjsG1099"><path id="SvgjsPath1100" d="M106.5 225.5L106.5 188.5L106.5 188.5L106.5 151.5" stroke="#323232" stroke-width="2" fill="none" marker-end="url(#SvgjsMarker1101)"></path><rect id="SvgjsRect1103" width="65" height="16" x="74" y="180.5" fill="#ffffff"></rect><text id="SvgjsText1104" font-family="微软雅黑" text-anchor="middle" font-size="13px" width="65px" fill="#323232" font-weight="400" align="top" lineHeight="16px" anchor="middle" family="微软雅黑" size="13px" weight="400" font-style="" opacity="1" y="178.875" transform="rotate(0)"><tspan id="SvgjsTspan1105" dy="16" x="106.5"><tspan id="SvgjsTspan1106" style="text-decoration:;">可引用转换</tspan></tspan></text></g><g id="SvgjsG1107"><path id="SvgjsPath1108" d="M188 243L252.5 243L252.5 243L317 243" stroke="#323232" stroke-width="2" fill="none" marker-end="url(#SvgjsMarker1109)"></path><rect id="SvgjsRect1111" width="65" height="16" x="220" y="235" fill="#ffffff"></rect><text id="SvgjsText1112" font-family="微软雅黑" text-anchor="middle" font-size="13px" width="65px" fill="#323232" font-weight="400" align="top" lineHeight="16px" anchor="middle" family="微软雅黑" size="13px" weight="400" font-style="" opacity="1" y="233.375" transform="rotate(0)"><tspan id="SvgjsTspan1113" dy="16" x="252.5"><tspan id="SvgjsTspan1114" style="text-decoration:;">可引用转换</tspan></tspan></text></g><g id="SvgjsG1115"><path id="SvgjsPath1116" d="M398.5 225.5L398.5 188.5L398.5 188.5L398.5 151.5" stroke="#323232" stroke-width="2" fill="none" marker-end="url(#SvgjsMarker1117)"></path><rect id="SvgjsRect1119" width="52" height="16" x="372.5" y="180.5" fill="#ffffff"></rect><text id="SvgjsText1120" font-family="微软雅黑" text-anchor="middle" font-size="13px" width="52px" fill="#323232" font-weight="400" align="top" lineHeight="16px" anchor="middle" family="微软雅黑" size="13px" weight="400" font-style="" opacity="1" y="178.875" transform="rotate(0)"><tspan id="SvgjsTspan1121" dy="16" x="398.5"><tspan id="SvgjsTspan1122" style="text-decoration:;">可以转换</tspan></tspan></text></g><g id="SvgjsG1123" transform="translate(25,25)"><path id="SvgjsPath1124" d="M 0 0L 292 0L 292 64L 0 64Z" stroke="none" fill="none"></path><g id="SvgjsG1125"><text id="SvgjsText1126" font-family="微软雅黑" text-anchor="start" font-size="13px" width="292px" fill="#323232" font-weight="400" align="middle" lineHeight="125%" anchor="start" family="微软雅黑" size="13px" weight="400" font-style="" opacity="1" y="-1.625" transform="rotate(0)"><tspan id="SvgjsTspan1127" dy="16" x="0"><tspan id="SvgjsTspan1128" style="text-decoration:;">   interface Fruit extends Food { }</tspan></tspan><tspan id="SvgjsTspan1129" dy="16" x="0"><tspan id="SvgjsTspan1130" style="text-decoration:;"> </tspan></tspan><tspan id="SvgjsTspan1131" dy="16" x="0"><tspan id="SvgjsTspan1132" style="text-decoration:;"> </tspan></tspan><tspan id="SvgjsTspan1133" dy="16" x="0"><tspan id="SvgjsTspan1134" style="text-decoration:;">   static class Apple implements Fruit { }</tspan></tspan><tspan id="SvgjsTspan1135" dy="16" x="0"><tspan id="SvgjsTspan1136" style="text-decoration:;">   static class Pair implements Fruit { }</tspan></tspan></text></g></g><g id="SvgjsG1137"><path id="SvgjsPath1138" d="M183.40423977855505 225.86788218175525C 236.68349181659903 188.56134827454179 253.2080430037388 135 318.25 135" stroke="#323232" stroke-width="2" fill="none" marker-end="url(#SvgjsMarker1139)"></path><rect id="SvgjsRect1141" width="65" height="16" x="213.91610552994607" y="158.44399087567257" fill="#ffffff"></rect><text id="SvgjsText1142" font-family="微软雅黑" text-anchor="middle" font-size="13px" width="65px" fill="#323232" font-weight="400" align="top" lineHeight="16px" anchor="middle" family="微软雅黑" size="13px" weight="400" font-style="" opacity="1" y="156.81899087567257" transform="rotate(0)"><tspan id="SvgjsTspan1143" dy="16" x="246.41610552994607"><tspan id="SvgjsTspan1144" style="text-decoration:;">可引用转换</tspan></tspan></text></g><g id="SvgjsG1145" transform="translate(25,447.5)"><path id="SvgjsPath1146" d="M 0 4Q 0 0 4 0L 159 0Q 163 0 163 4L 163 29Q 163 33 159 33L 4 33Q 0 33 0 29Z" stroke="rgba(50,50,50,1)" stroke-width="2" fill-opacity="1" fill="#ffe6cc"></path><g id="SvgjsG1147"><text id="SvgjsText1148" font-family="微软雅黑" text-anchor="middle" font-size="13px" width="143px" fill="#323232" font-weight="400" align="middle" lineHeight="125%" anchor="middle" family="微软雅黑" size="13px" weight="400" font-style="" opacity="1" y="6.875" transform="rotate(0)"><tspan id="SvgjsTspan1149" dy="16" x="81.5"><tspan id="SvgjsTspan1150" style="text-decoration:;">List&lt;Fruit&gt;</tspan></tspan></text></g></g><g id="SvgjsG1151" transform="translate(318.25,447.5)"><path id="SvgjsPath1152" d="M 0 4Q 0 0 4 0L 156.5 0Q 160.5 0 160.5 4L 160.5 29Q 160.5 33 156.5 33L 4 33Q 0 33 0 29Z" stroke="rgba(50,50,50,1)" stroke-width="2" fill-opacity="1" fill="#ffe6cc"></path><g id="SvgjsG1153"><text id="SvgjsText1154" font-family="微软雅黑" text-anchor="middle" font-size="13px" width="141px" fill="#323232" font-weight="400" align="middle" lineHeight="125%" anchor="middle" family="微软雅黑" size="13px" weight="400" font-style="" opacity="1" y="6.875" transform="rotate(0)"><tspan id="SvgjsTspan1155" dy="16" x="80.5"><tspan id="SvgjsTspan1156" style="text-decoration:;">List&lt;Apple</tspan><tspan id="SvgjsTspan1157" style="text-decoration:;font-size: inherit;">&gt;</tspan></tspan></text></g></g><g id="SvgjsG1158" transform="translate(25,554.5)"><path id="SvgjsPath1159" d="M 0 4Q 0 0 4 0L 159 0Q 163 0 163 4L 163 31Q 163 35 159 35L 4 35Q 0 35 0 31Z" stroke="rgba(50,50,50,1)" stroke-width="2" fill-opacity="1" fill="#ccffff"></path><g id="SvgjsG1160"><text id="SvgjsText1161" font-family="微软雅黑" text-anchor="middle" font-size="13px" width="143px" fill="#323232" font-weight="400" align="middle" lineHeight="125%" anchor="middle" family="微软雅黑" size="13px" weight="400" font-style="" opacity="1" y="7.875" transform="rotate(0)"><tspan id="SvgjsTspan1162" dy="16" x="81.5"><tspan id="SvgjsTspan1163" style="text-decoration:;">List&lt;? super Fruit&gt;</tspan></tspan></text></g></g><g id="SvgjsG1164" transform="translate(317,554.5)"><path id="SvgjsPath1165" d="M 0 4Q 0 0 4 0L 159 0Q 163 0 163 4L 163 31Q 163 35 159 35L 4 35Q 0 35 0 31Z" stroke="rgba(50,50,50,1)" stroke-width="2" fill-opacity="1" fill="#ccffff"></path><g id="SvgjsG1166"><text id="SvgjsText1167" font-family="微软雅黑" text-anchor="middle" font-size="13px" width="143px" fill="#323232" font-weight="400" align="middle" lineHeight="125%" anchor="middle" family="微软雅黑" size="13px" weight="400" font-style="" opacity="1" y="7.875" transform="rotate(0)"><tspan id="SvgjsTspan1168" dy="16" x="81.5"><tspan id="SvgjsTspan1169" style="text-decoration:;">List&lt;? super Apple&gt;</tspan></tspan></text></g></g><g id="SvgjsG1170"><path id="SvgjsPath1171" d="M106.5 554.5L106.5 517.5L106.5 517.5L106.5 480.5" stroke="#323232" stroke-width="2" fill="none" marker-end="url(#SvgjsMarker1172)"></path><rect id="SvgjsRect1174" width="65" height="16" x="74" y="509.5" fill="#ffffff"></rect><text id="SvgjsText1175" font-family="微软雅黑" text-anchor="middle" font-size="13px" width="65px" fill="#323232" font-weight="400" align="top" lineHeight="16px" anchor="middle" family="微软雅黑" size="13px" weight="400" font-style="" opacity="1" y="507.875" transform="rotate(0)"><tspan id="SvgjsTspan1176" dy="16" x="106.5"><tspan id="SvgjsTspan1177" style="text-decoration:;">可引用转换</tspan></tspan></text></g><g id="SvgjsG1178"><path id="SvgjsPath1179" d="M188 572L252.5 572L252.5 572L317 572" stroke="#323232" stroke-width="2" fill="none" marker-start="url(#SvgjsMarker1180)"></path><rect id="SvgjsRect1182" width="65" height="16" x="220" y="564" fill="#ffffff"></rect><text id="SvgjsText1183" font-family="微软雅黑" text-anchor="middle" font-size="13px" width="65px" fill="#323232" font-weight="400" align="top" lineHeight="16px" anchor="middle" family="微软雅黑" size="13px" weight="400" font-style="" opacity="1" y="562.375" transform="rotate(0)"><tspan id="SvgjsTspan1184" dy="16" x="252.5"><tspan id="SvgjsTspan1185" style="text-decoration:;">可引用转换</tspan></tspan></text></g><g id="SvgjsG1186"><path id="SvgjsPath1187" d="M398.5 554.5L398.5 517.5L398.5 517.5L398.5 480.5" stroke="#323232" stroke-width="2" fill="none" marker-end="url(#SvgjsMarker1188)"></path><rect id="SvgjsRect1190" width="52" height="16" x="372.5" y="509.5" fill="#ffffff"></rect><text id="SvgjsText1191" font-family="微软雅黑" text-anchor="middle" font-size="13px" width="52px" fill="#323232" font-weight="400" align="top" lineHeight="16px" anchor="middle" family="微软雅黑" size="13px" weight="400" font-style="" opacity="1" y="507.875" transform="rotate(0)"><tspan id="SvgjsTspan1192" dy="16" x="398.5"><tspan id="SvgjsTspan1193" style="text-decoration:;">可以转换</tspan></tspan></text></g><g id="SvgjsG1194" transform="translate(25,354)"><path id="SvgjsPath1195" d="M 0 0L 292 0L 292 64L 0 64Z" stroke="none" fill="none"></path><g id="SvgjsG1196"><text id="SvgjsText1197" font-family="微软雅黑" text-anchor="start" font-size="13px" width="292px" fill="#323232" font-weight="400" align="middle" lineHeight="125%" anchor="start" family="微软雅黑" size="13px" weight="400" font-style="" opacity="1" y="-1.625" transform="rotate(0)"><tspan id="SvgjsTspan1198" dy="16" x="0"><tspan id="SvgjsTspan1199" style="text-decoration:;">   interface Fruit extends Food { }</tspan></tspan><tspan id="SvgjsTspan1200" dy="16" x="0"><tspan id="SvgjsTspan1201" style="text-decoration:;"> </tspan></tspan><tspan id="SvgjsTspan1202" dy="16" x="0"><tspan id="SvgjsTspan1203" style="text-decoration:;"> </tspan></tspan><tspan id="SvgjsTspan1204" dy="16" x="0"><tspan id="SvgjsTspan1205" style="text-decoration:;">   static class Apple implements Fruit { }</tspan></tspan><tspan id="SvgjsTspan1206" dy="16" x="0"><tspan id="SvgjsTspan1207" style="text-decoration:;">   static class Pair implements Fruit { }</tspan></tspan></text></g></g><g id="SvgjsG1208"><path id="SvgjsPath1209" d="M317.31907786235774 557.026060429977C 257.44094170150856 535.232201184089 251.72098155966182 464 188 464" stroke="#323232" stroke-width="2" fill="none" marker-end="url(#SvgjsMarker1210)"></path><rect id="SvgjsRect1212" width="65" height="16" x="221.6006059557336" y="494.3403329977805" fill="#ffffff"></rect><text id="SvgjsText1213" font-family="微软雅黑" text-anchor="middle" font-size="13px" width="65px" fill="#323232" font-weight="400" align="top" lineHeight="16px" anchor="middle" family="微软雅黑" size="13px" weight="400" font-style="" opacity="1" y="492.7153329977805" transform="rotate(0)"><tspan id="SvgjsTspan1214" dy="16" x="254.1006059557336"><tspan id="SvgjsTspan1215" style="text-decoration:;">可引用转换</tspan></tspan></text></g><g id="SvgjsG1216" transform="translate(843,263.5)"><path id="SvgjsPath1217" d="M 0 4Q 0 0 4 0L 159 0Q 163 0 163 4L 163 29Q 163 33 159 33L 4 33Q 0 33 0 29Z" stroke="rgba(50,50,50,1)" stroke-width="2" fill-opacity="1" fill="#ffe6cc"></path><g id="SvgjsG1218"><text id="SvgjsText1219" font-family="微软雅黑" text-anchor="middle" font-size="13px" width="143px" fill="#323232" font-weight="400" align="middle" lineHeight="125%" anchor="middle" family="微软雅黑" size="13px" weight="400" font-style="" opacity="1" y="6.875" transform="rotate(0)"><tspan id="SvgjsTspan1220" dy="16" x="81.5"><tspan id="SvgjsTspan1221" style="text-decoration:;">List&lt;Fruit&gt;</tspan></tspan></text></g></g><g id="SvgjsG1222" transform="translate(1136.25,263.5)"><path id="SvgjsPath1223" d="M 0 4Q 0 0 4 0L 156.5 0Q 160.5 0 160.5 4L 160.5 29Q 160.5 33 156.5 33L 4 33Q 0 33 0 29Z" stroke="rgba(50,50,50,1)" stroke-width="2" fill-opacity="1" fill="#ffe6cc"></path><g id="SvgjsG1224"><text id="SvgjsText1225" font-family="微软雅黑" text-anchor="middle" font-size="13px" width="141px" fill="#323232" font-weight="400" align="middle" lineHeight="125%" anchor="middle" family="微软雅黑" size="13px" weight="400" font-style="" opacity="1" y="6.875" transform="rotate(0)"><tspan id="SvgjsTspan1226" dy="16" x="80.5"><tspan id="SvgjsTspan1227" style="text-decoration:;">List&lt;Apple</tspan><tspan id="SvgjsTspan1228" style="text-decoration:;font-size: inherit;">&gt;</tspan></tspan></text></g></g><g id="SvgjsG1229" transform="translate(843,399.5)"><path id="SvgjsPath1230" d="M 0 4Q 0 0 4 0L 159 0Q 163 0 163 4L 163 31Q 163 35 159 35L 4 35Q 0 35 0 31Z" stroke="rgba(50,50,50,1)" stroke-width="2" fill-opacity="1" fill="#ccffcc"></path><g id="SvgjsG1231"><text id="SvgjsText1232" font-family="微软雅黑" text-anchor="middle" font-size="13px" width="143px" fill="#323232" font-weight="400" align="middle" lineHeight="125%" anchor="middle" family="微软雅黑" size="13px" weight="400" font-style="" opacity="1" y="7.875" transform="rotate(0)"><tspan id="SvgjsTspan1233" dy="16" x="81.5"><tspan id="SvgjsTspan1234" style="text-decoration:;">List&lt;? extends Fruit&gt;</tspan></tspan></text></g></g><g id="SvgjsG1235" transform="translate(1135,399.5)"><path id="SvgjsPath1236" d="M 0 4Q 0 0 4 0L 159 0Q 163 0 163 4L 163 31Q 163 35 159 35L 4 35Q 0 35 0 31Z" stroke="rgba(50,50,50,1)" stroke-width="2" fill-opacity="1" fill="#ccffcc"></path><g id="SvgjsG1237"><text id="SvgjsText1238" font-family="微软雅黑" text-anchor="middle" font-size="13px" width="143px" fill="#323232" font-weight="400" align="middle" lineHeight="125%" anchor="middle" family="微软雅黑" size="13px" weight="400" font-style="" opacity="1" y="7.875" transform="rotate(0)"><tspan id="SvgjsTspan1239" dy="16" x="81.5"><tspan id="SvgjsTspan1240" style="text-decoration:;">List&lt;? extends Apple&gt;</tspan></tspan></text></g></g><g id="SvgjsG1241"><path id="SvgjsPath1242" d="M924.5 399.5L924.5 348L924.5 348L924.5 296.5" stroke="#323232" stroke-width="2" fill="none" marker-end="url(#SvgjsMarker1243)"></path><rect id="SvgjsRect1245" width="65" height="16" x="892" y="340" fill="#ffffff"></rect><text id="SvgjsText1246" font-family="微软雅黑" text-anchor="middle" font-size="13px" width="65px" fill="#323232" font-weight="400" align="top" lineHeight="16px" anchor="middle" family="微软雅黑" size="13px" weight="400" font-style="" opacity="1" y="338.375" transform="rotate(0)"><tspan id="SvgjsTspan1247" dy="16" x="924.5"><tspan id="SvgjsTspan1248" style="text-decoration:;">可引用转换</tspan></tspan></text></g><g id="SvgjsG1249"><path id="SvgjsPath1250" d="M1006 417L1070.5 417L1070.5 417L1135 417" stroke="#323232" stroke-width="2" fill="none" marker-end="url(#SvgjsMarker1251)"></path><rect id="SvgjsRect1253" width="65" height="16" x="1038" y="409" fill="#ffffff"></rect><text id="SvgjsText1254" font-family="微软雅黑" text-anchor="middle" font-size="13px" width="65px" fill="#323232" font-weight="400" align="top" lineHeight="16px" anchor="middle" family="微软雅黑" size="13px" weight="400" font-style="" opacity="1" y="407.375" transform="rotate(0)"><tspan id="SvgjsTspan1255" dy="16" x="1070.5"><tspan id="SvgjsTspan1256" style="text-decoration:;">可引用转换</tspan></tspan></text></g><g id="SvgjsG1257"><path id="SvgjsPath1258" d="M1216.5 399.5L1216.5 348L1216.5 348L1216.5 296.5" stroke="#323232" stroke-width="2" fill="none" marker-end="url(#SvgjsMarker1259)"></path><rect id="SvgjsRect1261" width="52" height="16" x="1190.5" y="340" fill="#ffffff"></rect><text id="SvgjsText1262" font-family="微软雅黑" text-anchor="middle" font-size="13px" width="52px" fill="#323232" font-weight="400" align="top" lineHeight="16px" anchor="middle" family="微软雅黑" size="13px" weight="400" font-style="" opacity="1" y="338.375" transform="rotate(0)"><tspan id="SvgjsTspan1263" dy="16" x="1216.5"><tspan id="SvgjsTspan1264" style="text-decoration:;">可以转换</tspan></tspan></text></g><g id="SvgjsG1265"><path id="SvgjsPath1266" d="M1001.4042397785552 399.86788218175525C 1058.0349243196933 360.2146499720742 1096.7146499720743 348.5349243196933 1136.3678821817552 291.90423977855505" stroke="#323232" stroke-width="2" fill="none" marker-end="url(#SvgjsMarker1267)"></path><rect id="SvgjsRect1269" width="65" height="16" x="1042.7526056044517" y="344.25260560445156" fill="#ffffff"></rect><text id="SvgjsText1270" font-family="微软雅黑" text-anchor="middle" font-size="13px" width="65px" fill="#323232" font-weight="400" align="top" lineHeight="16px" anchor="middle" family="微软雅黑" size="13px" weight="400" font-style="" opacity="1" y="342.62760560445156" transform="rotate(0)"><tspan id="SvgjsTspan1271" dy="16" x="1075.2526056044517"><tspan id="SvgjsTspan1272" style="text-decoration:;">可引用转换</tspan></tspan></text></g><g id="SvgjsG1273" transform="translate(843,131)"><path id="SvgjsPath1274" d="M 0 4Q 0 0 4 0L 159 0Q 163 0 163 4L 163 31Q 163 35 159 35L 4 35Q 0 35 0 31Z" stroke="rgba(50,50,50,1)" stroke-width="2" fill-opacity="1" fill="#ccffff"></path><g id="SvgjsG1275"><text id="SvgjsText1276" font-family="微软雅黑" text-anchor="middle" font-size="13px" width="143px" fill="#323232" font-weight="400" align="middle" lineHeight="125%" anchor="middle" family="微软雅黑" size="13px" weight="400" font-style="" opacity="1" y="7.875" transform="rotate(0)"><tspan id="SvgjsTspan1277" dy="16" x="81.5"><tspan id="SvgjsTspan1278" style="text-decoration:;">List&lt;? super Fruit&gt;</tspan></tspan></text></g></g><g id="SvgjsG1279" transform="translate(1135,131)"><path id="SvgjsPath1280" d="M 0 4Q 0 0 4 0L 159 0Q 163 0 163 4L 163 31Q 163 35 159 35L 4 35Q 0 35 0 31Z" stroke="rgba(50,50,50,1)" stroke-width="2" fill-opacity="1" fill="#ccffff"></path><g id="SvgjsG1281"><text id="SvgjsText1282" font-family="微软雅黑" text-anchor="middle" font-size="13px" width="143px" fill="#323232" font-weight="400" align="middle" lineHeight="125%" anchor="middle" family="微软雅黑" size="13px" weight="400" font-style="" opacity="1" y="7.875" transform="rotate(0)"><tspan id="SvgjsTspan1283" dy="16" x="81.5"><tspan id="SvgjsTspan1284" style="text-decoration:;">List&lt;? super Apple&gt;</tspan></tspan></text></g></g><g id="SvgjsG1285"><path id="SvgjsPath1286" d="M924.5 166L924.5 214.75L924.5 214.75L924.5 263.5" stroke="#323232" stroke-width="2" fill="none" marker-end="url(#SvgjsMarker1287)"></path><rect id="SvgjsRect1289" width="65" height="16" x="892" y="206.75" fill="#ffffff"></rect><text id="SvgjsText1290" font-family="微软雅黑" text-anchor="middle" font-size="13px" width="65px" fill="#323232" font-weight="400" align="top" lineHeight="16px" anchor="middle" family="微软雅黑" size="13px" weight="400" font-style="" opacity="1" y="205.125" transform="rotate(0)"><tspan id="SvgjsTspan1291" dy="16" x="924.5"><tspan id="SvgjsTspan1292" style="text-decoration:;">可引用转换</tspan></tspan></text></g><g id="SvgjsG1293"><path id="SvgjsPath1294" d="M1006 148.5L1070.5 148.5L1070.5 148.5L1135 148.5" stroke="#323232" stroke-width="2" fill="none" marker-start="url(#SvgjsMarker1295)"></path><rect id="SvgjsRect1297" width="65" height="16" x="1038" y="140.5" fill="#ffffff"></rect><text id="SvgjsText1298" font-family="微软雅黑" text-anchor="middle" font-size="13px" width="65px" fill="#323232" font-weight="400" align="top" lineHeight="16px" anchor="middle" family="微软雅黑" size="13px" weight="400" font-style="" opacity="1" y="138.875" transform="rotate(0)"><tspan id="SvgjsTspan1299" dy="16" x="1070.5"><tspan id="SvgjsTspan1300" style="text-decoration:;">可引用转换</tspan></tspan></text></g><g id="SvgjsG1301"><path id="SvgjsPath1302" d="M1216.5 166L1216.5 214.75L1216.5 214.75L1216.5 263.5" stroke="#323232" stroke-width="2" fill="none" marker-end="url(#SvgjsMarker1303)"></path><rect id="SvgjsRect1305" width="52" height="16" x="1190.5" y="206.75" fill="#ffffff"></rect><text id="SvgjsText1306" font-family="微软雅黑" text-anchor="middle" font-size="13px" width="52px" fill="#323232" font-weight="400" align="top" lineHeight="16px" anchor="middle" family="微软雅黑" size="13px" weight="400" font-style="" opacity="1" y="205.125" transform="rotate(0)"><tspan id="SvgjsTspan1307" dy="16" x="1216.5"><tspan id="SvgjsTspan1308" style="text-decoration:;">可以转换</tspan></tspan></text></g><g id="SvgjsG1309" transform="translate(714,31)"><path id="SvgjsPath1310" d="M 0 0L 292 0L 292 64L 0 64Z" stroke="none" fill="none"></path><g id="SvgjsG1311"><text id="SvgjsText1312" font-family="微软雅黑" text-anchor="start" font-size="13px" width="292px" fill="#323232" font-weight="400" align="middle" lineHeight="125%" anchor="start" family="微软雅黑" size="13px" weight="400" font-style="" opacity="1" y="6.375" transform="rotate(0)"><tspan id="SvgjsTspan1313" dy="16" x="0"><tspan id="SvgjsTspan1314" style="text-decoration:;">   interface Fruit extends Food { }</tspan></tspan><tspan id="SvgjsTspan1315" dy="16" x="0"><tspan id="SvgjsTspan1316" style="text-decoration:;"> </tspan></tspan><tspan id="SvgjsTspan1317" dy="16" x="0"><tspan id="SvgjsTspan1318" style="text-decoration:;">   static class Apple implements Fruit { }</tspan></tspan></text></g></g><g id="SvgjsG1319"><path id="SvgjsPath1320" d="M1135.0962666587138 160.64327434188078C 1083.3407913223848 204.07127460799936 1056.7477695250632 225.11592546211693 1001.4042397785552 263.86788218175525" stroke="#323232" stroke-width="2" fill="none" marker-end="url(#SvgjsMarker1321)"></path><rect id="SvgjsRect1323" width="65" height="16" x="1037.0957736224518" y="206.00909459174812" fill="#ffffff"></rect><text id="SvgjsText1324" font-family="微软雅黑" text-anchor="middle" font-size="13px" width="65px" fill="#323232" font-weight="400" align="top" lineHeight="16px" anchor="middle" family="微软雅黑" size="13px" weight="400" font-style="" opacity="1" y="204.38409459174812" transform="rotate(0)"><tspan id="SvgjsTspan1325" dy="16" x="1069.5957736224518"><tspan id="SvgjsTspan1326" style="text-decoration:;">可引用转换</tspan></tspan></text></g><g id="SvgjsG1327" transform="translate(622.5,105.5)"><path id="SvgjsPath1328" d="M 0 0L 194 0L 194 94.3648068669528L 0 94.3648068669528Z" stroke="rgba(50,50,50,1)" stroke-width="2" fill-opacity="1" fill="#ffffff"></path><g id="SvgjsG1329"><text id="SvgjsText1330" font-family="微软雅黑" text-anchor="start" font-size="13px" width="174px" fill="#323232" font-weight="400" align="middle" lineHeight="125%" anchor="start" family="微软雅黑" size="13px" weight="400" font-style="" opacity="1" y="29.557403433476402" transform="rotate(0)"><tspan id="SvgjsTspan1331" dy="16" x="10"><tspan id="SvgjsTspan1332" style="text-decoration:;">添加实例对象功能正常</tspan></tspan><tspan id="SvgjsTspan1333" dy="16" x="10"><tspan id="SvgjsTspan1334" style="text-decoration:;">取出的实例只能被Object引用</tspan></tspan></text></g></g><g id="SvgjsG1335" transform="translate(622.5,199.8648068669528)"><path id="SvgjsPath1336" d="M 0 0L 194 0L 194 173.1351931330472L 0 173.1351931330472Z" stroke="rgba(50,50,50,1)" stroke-width="2" fill-opacity="1" fill="#ffffff"></path><g id="SvgjsG1337"><text id="SvgjsText1338" font-family="微软雅黑" text-anchor="start" font-size="13px" width="174px" fill="#323232" font-weight="400" align="middle" lineHeight="125%" anchor="start" family="微软雅黑" size="13px" weight="400" font-style="" opacity="1" y="68.9425965665236" transform="rotate(0)"><tspan id="SvgjsTspan1339" dy="16" x="10"><tspan id="SvgjsTspan1340" style="text-decoration:;">添加实例对象功能正常</tspan></tspan><tspan id="SvgjsTspan1341" dy="16" x="10"><tspan id="SvgjsTspan1342" style="text-decoration:;">取出实例对象功能正常</tspan></tspan></text></g></g><g id="SvgjsG1343" transform="translate(622.5,373)"><path id="SvgjsPath1344" d="M 0 0L 194 0L 194 81.5L 0 81.5Z" stroke="rgba(50,50,50,1)" stroke-width="2" fill-opacity="1" fill="#ffffff"></path><g id="SvgjsG1345"><text id="SvgjsText1346" font-family="微软雅黑" text-anchor="start" font-size="13px" width="174px" fill="#323232" font-weight="400" align="middle" lineHeight="125%" anchor="start" family="微软雅黑" size="13px" weight="400" font-style="" opacity="1" y="23.125" transform="rotate(0)"><tspan id="SvgjsTspan1347" dy="16" x="10"><tspan id="SvgjsTspan1348" style="text-decoration:;">无法添加实例对象</tspan></tspan><tspan id="SvgjsTspan1349" dy="16" x="10"><tspan id="SvgjsTspan1350" style="text-decoration:;">取出实例对象功能正常</tspan></tspan></text></g></g></svg>